<svg width="49" height="48" viewBox="0 0 49 48" fill="none" xmlns="http://www.w3.org/2000/svg">
<path d="M44.5166 29.7188C45.1859 28.9716 45.5938 27.9853 45.5938 26.9062C45.5938 24.5803 43.7009 22.6875 41.375 22.6875H33.1869C33.9978 20.2266 34.3438 16.9613 34.3438 15.5616V14.1562C34.3438 11.055 31.82 8.53125 28.7188 8.53125H27.3125C26.6675 8.53125 26.105 8.97 25.9484 9.59625L25.1825 12.6609C24.1091 16.9528 20.7013 21.6881 17.1744 22.5487C16.5566 20.985 15.0312 19.875 13.25 19.875H4.8125C4.03625 19.875 3.40625 20.505 3.40625 21.2812V46.5938C3.40625 47.37 4.03625 48 4.8125 48H13.25C14.9272 48 16.3784 47.0166 17.0581 45.5953L21.89 47.2059C23.4697 47.7328 25.1159 48 26.7819 48H38.5625C40.8884 48 42.7812 46.1072 42.7812 43.7812C42.7812 43.2328 42.6763 42.7078 42.485 42.2269C44.2738 41.7384 45.5938 40.0987 45.5938 38.1562C45.5938 37.0772 45.1859 36.0909 44.5166 35.3438C45.1859 34.5966 45.5938 33.6103 45.5938 32.5312C45.5938 31.4522 45.1859 30.4659 44.5166 29.7188ZM14.6562 43.7812C14.6562 44.5566 14.0253 45.1875 13.25 45.1875H6.21875V22.6875H13.25C14.0253 22.6875 14.6562 23.3184 14.6562 24.0938V43.7812ZM38.5625 31.125H41.375C42.1503 31.125 42.7812 31.7559 42.7812 32.5312C42.7812 33.3066 42.1503 33.9375 41.375 33.9375H38.5625C37.7863 33.9375 37.1562 34.5675 37.1562 35.3438C37.1562 36.12 37.7863 36.75 38.5625 36.75H41.375C42.1503 36.75 42.7812 37.3809 42.7812 38.1562C42.7812 38.9316 42.1503 39.5625 41.375 39.5625H38.5625C37.7863 39.5625 37.1562 40.1925 37.1562 40.9688C37.1562 41.745 37.7863 42.375 38.5625 42.375C39.3378 42.375 39.9688 43.0059 39.9688 43.7812C39.9688 44.5566 39.3378 45.1875 38.5625 45.1875H26.7819C25.4187 45.1875 24.0716 44.9691 22.7787 44.5378L17.4688 42.7678V25.3669C19.6747 24.9478 21.8337 23.5509 23.7828 21.2644C25.6859 19.0313 27.2291 16.0706 27.9106 13.3434L28.4103 11.3438H28.7188C30.2694 11.3438 31.5312 12.6056 31.5312 14.1562V15.5616C31.5312 17.4497 30.9406 21.0712 30.185 22.6875H27.3125C26.5362 22.6875 25.9062 23.3175 25.9062 24.0938C25.9062 24.87 26.5362 25.5 27.3125 25.5H41.375C42.1503 25.5 42.7812 26.1309 42.7812 26.9062C42.7812 27.6816 42.1503 28.3125 41.375 28.3125H38.5625C37.7863 28.3125 37.1562 28.9425 37.1562 29.7188C37.1562 30.495 37.7863 31.125 38.5625 31.125Z" fill="#FF5A30"/>
<path d="M10.4375 42.375C11.2142 42.375 11.8438 41.7454 11.8438 40.9688C11.8438 40.1921 11.2142 39.5625 10.4375 39.5625C9.66085 39.5625 9.03125 40.1921 9.03125 40.9688C9.03125 41.7454 9.66085 42.375 10.4375 42.375Z" fill="#FF5A30"/>
<path d="M30.125 0C29.3484 0 28.7188 0.629625 28.7188 1.40625V4.3125C28.7188 5.08913 29.3484 5.71875 30.125 5.71875C30.9016 5.71875 31.5312 5.08913 31.5312 4.3125V1.40625C31.5312 0.629625 30.9016 0 30.125 0Z" fill="#FF5A30"/>
<path d="M24.1589 6.20139L22.1701 4.21267C21.6211 3.66348 20.7306 3.66348 20.1814 4.21267C19.6322 4.76186 19.6322 5.6522 20.1814 6.20139L22.1701 8.19011C22.7192 8.7392 23.6098 8.7393 24.1589 8.19011C24.7081 7.64092 24.7081 6.75058 24.1589 6.20139Z" fill="#FF5A30"/>
<path d="M40.069 4.21267C39.5199 3.66348 38.6295 3.66348 38.0803 4.21267L36.0916 6.2013C35.5424 6.75049 35.5424 7.64083 36.0916 8.19002C36.6407 8.73921 37.5311 8.7393 38.0803 8.19011L40.069 6.20139C40.6182 5.6522 40.6182 4.76186 40.069 4.21267Z" fill="#FF5A30"/>
</svg>
