<svg width="49" height="48" viewBox="0 0 49 48" fill="none" xmlns="http://www.w3.org/2000/svg">
<g clip-path="url(#clip0_19015_1306)">
<path d="M7.5 44H2C1.172 44 0.5 43.328 0.5 42.5V25.5C0.5 24.672 1.172 24 2 24C9.012 24 12.276 26.434 12.41 26.538C12.894 26.908 13.108 27.534 12.948 28.122L8.948 42.894C8.772 43.546 8.178 44 7.5 44ZM3.5 41H6.352L9.748 28.458C8.702 27.964 6.658 27.228 3.5 27.044V41Z" fill="#FF5A30"/>
<path d="M26.5002 48C21.9822 48 13.6542 44.542 7.46221 41.638C6.71221 41.286 6.39021 40.392 6.74221 39.642C7.09221 38.892 7.98821 38.566 8.73621 38.92C16.9762 42.786 23.4522 45 26.5002 45C30.5562 45 39.7642 40.618 44.5902 38.09C44.0342 37.772 43.2062 37.5 42.0002 37.5C40.2402 37.5 38.0702 38.22 35.9722 38.916C35.2902 39.142 34.6102 39.368 33.9362 39.574C32.4522 40.032 30.7002 40.5 28.9982 40.5C24.7842 40.5 19.2202 38.496 18.9862 38.41C18.2062 38.126 17.8042 37.266 18.0882 36.488C18.3722 35.708 19.2342 35.31 20.0102 35.59C20.0622 35.61 25.3142 37.5 28.9982 37.5C30.3102 37.5 31.8562 37.076 33.0562 36.706C33.7082 36.506 34.3662 36.288 35.0242 36.07C37.3482 35.298 39.7502 34.5 41.9962 34.5C46.9542 34.5 48.3322 37.802 48.3882 37.944C48.6702 38.646 48.3822 39.448 47.7202 39.814C47.1202 40.148 32.8142 48 26.5002 48Z" fill="#FF5A30"/>
<path d="M33.4998 39.6795C32.6718 39.6795 31.9998 39.0075 31.9998 38.1795V37.2795C31.9998 36.0975 31.1578 35.0655 29.9998 34.8295L10.7378 30.8895C9.92776 30.7235 9.40376 29.9315 9.56976 29.1195C9.73576 28.3075 10.5298 27.7895 11.3398 27.9515L30.6018 31.8915C33.1498 32.4115 34.9998 34.6795 34.9998 37.2815V38.1815C34.9998 39.0075 34.3278 39.6795 33.4998 39.6795Z" fill="#FF5A30"/>
<path d="M36.5 27.9991C36.3 27.9991 36.102 27.959 35.914 27.879C35.448 27.681 24.5 22.915 24.5 13.107V5.07105C24.5 4.42905 24.908 3.85905 25.518 3.65105L36.018 0.0790469C36.33 -0.0289531 36.67 -0.0289531 36.982 0.0790469L47.482 3.65105C48.092 3.85705 48.5 4.42705 48.5 5.07105V13.107C48.5 22.915 37.552 27.6831 37.086 27.8811C36.898 27.959 36.7 27.9991 36.5 27.9991ZM27.5 6.14505V13.107C27.5 19.803 34.41 23.789 36.498 24.8391C38.582 23.783 45.5 19.7771 45.5 13.107V6.14505L36.5 3.08305L27.5 6.14505Z" fill="#FF5A30"/>
<path d="M35.9995 19.0003C35.6035 19.0003 35.2195 18.8423 34.9395 18.5603L30.9395 14.5603C30.3535 13.9743 30.3535 13.0243 30.9395 12.4383C31.5255 11.8523 32.4755 11.8523 33.0615 12.4383L35.8395 15.2163L40.7995 8.60027C41.2915 7.93828 42.2335 7.80227 42.8995 8.30027C43.5615 8.79827 43.6955 9.73827 43.1975 10.4003L37.1975 18.4003C36.9375 18.7483 36.5395 18.9663 36.1035 18.9963C36.0695 19.0003 36.0355 19.0003 35.9995 19.0003Z" fill="#FF5A30"/>
</g>
<defs>
<clipPath id="clip0_19015_1306">
<rect width="48" height="48" fill="white" transform="translate(0.5)"/>
</clipPath>
</defs>
</svg>
