<svg width="49" height="48" viewBox="0 0 49 48" fill="none" xmlns="http://www.w3.org/2000/svg">
<g clip-path="url(#clip0_19015_1291)">
<path d="M38.5536 2.09001C32.3843 1.44159 26.8377 5.93317 26.1893 12.1024L25.0623 22.8246C24.9812 23.597 25.5415 24.289 26.3139 24.3702L26.7801 24.4192L25.6041 35.6075C25.0638 40.7486 28.8068 45.3708 33.9478 45.9111C39.0889 46.4515 43.7111 42.7085 44.2514 37.5674L45.4274 26.3791L45.8935 26.4281C46.6659 26.5092 47.3579 25.9489 47.4391 25.1765L48.566 14.4543C49.2144 8.28506 44.7229 2.73842 38.5536 2.09001ZM38.2596 4.8871C42.8866 5.37341 46.2553 9.53339 45.7689 14.1603L45.377 17.8898L28.5944 16.1259L28.9864 12.3964C29.4727 7.76947 33.6327 4.40079 38.2596 4.8871ZM28.0064 21.7201L28.3004 18.923L45.083 20.6869L44.789 23.484L28.0064 21.7201ZM41.4543 37.2735C41.0761 40.8722 37.8405 43.4923 34.2418 43.114C30.6431 42.7358 28.023 39.5003 28.4012 35.9015L29.5772 24.7131L42.6303 26.0851L41.4543 37.2735Z" fill="#FF5A30"/>
<path d="M32.671 40.1218L36.4004 40.5138C37.1728 40.595 37.8648 40.0346 37.946 39.2622C38.0271 38.4899 37.4668 37.7979 36.6944 37.7167L32.965 37.3247C32.1926 37.2435 31.5006 37.8039 31.4194 38.5763C31.3382 39.3487 31.8986 40.0406 32.671 40.1218Z" fill="#FF5A30"/>
<path d="M10.4472 2.08968C4.27789 2.7381 -0.213682 8.28473 0.434734 14.454L1.56168 25.1762C1.64286 25.9486 2.33485 26.5089 3.10722 26.4277L3.5734 26.3787L4.74935 37.5671C5.2897 42.7082 9.91189 46.4511 15.0529 45.9108C20.194 45.3705 23.937 40.7483 23.3966 35.6072L22.2207 24.4188L22.6869 24.3698C23.4592 24.2887 24.0196 23.5967 23.9384 22.8243L22.8115 12.1021C22.1631 5.93284 16.6164 1.44126 10.4472 2.08968ZM4.21178 23.4837L3.9178 20.6866L20.7004 18.9226L20.9943 21.7197L4.21178 23.4837ZM20.5995 35.9012C20.9778 39.4999 18.3577 42.7355 14.759 43.1137C11.1602 43.492 7.92468 40.8719 7.54644 37.2731L6.3705 26.0848L19.4236 24.7128L20.5995 35.9012ZM20.4064 16.1255L3.62381 17.8895L3.23183 14.16C2.74552 9.53306 6.1142 5.37308 10.7411 4.88677C15.3681 4.40046 19.5281 7.76914 20.0144 12.3961L20.4064 16.1255Z" fill="#FF5A30"/>
<path d="M12.5998 40.5134L16.3292 40.1214C17.1016 40.0402 17.6619 39.3482 17.5808 38.5759C17.4996 37.8035 16.8076 37.2431 16.0352 37.3243L12.3058 37.7163C11.5334 37.7975 10.973 38.4895 11.0542 39.2618C11.1354 40.0342 11.8274 40.5946 12.5998 40.5134Z" fill="#FF5A30"/>
</g>
<defs>
<clipPath id="clip0_19015_1291">
<rect width="48" height="48" fill="white" transform="translate(0.5)"/>
</clipPath>
</defs>
</svg>
